<?xml version="1.0" encoding="iso-8859-1"?>
<!-- Generator: Adobe Illustrator 19.0.0, SVG Export Plug-In . SVG Version: 6.00 Build 0)  -->
<svg version="1.1" id="Layer_1" xmlns="http://www.w3.org/2000/svg" xmlns:xlink="http://www.w3.org/1999/xlink" x="0px" y="0px"
	 viewBox="0 0 510.544 510.544" style="enable-background:new 0 0 510.544 510.544;" xml:space="preserve">
<g>
	<rect x="79.264" y="72.072" style="fill:#F33052;" width="352" height="240.16"/>
	<path style="fill:#F33052;" d="M439.328,320.248h-368V64.072h368V320.248z M87.328,304.248h336V80.072h-336
		C87.328,80.072,87.328,304.248,87.328,304.248z"/>
</g>
<g style="opacity:0.35;">
	<polygon style="fill:#FFFFFF;" points="71.2,63.832 207.2,63.832 71.2,146.84 	"/>
</g>
<path d="M510.544,446.712H0l79.248-150.464h352.048L510.544,446.712z M53.024,414.712h404.48l-45.536-86.464H98.56L53.024,414.712z"
	/>
<rect x="108.448" y="363.48" width="297.312" height="16"/>
<g>
	<path style="fill:#FFFFFF;" d="M169.488,149.736v52.32c0,9.744-1.616,16.208-4.832,19.392s-9.776,4.784-19.664,4.784
		c-10.512,0-17.344-1.552-20.464-4.608c-3.136-3.072-4.704-9.792-4.704-20.176l0.176-5.616h13.712
		c0.224,2.816,0.336,4.944,0.336,6.336c0,1.328,0.064,2.944,0.176,4.832c0.224,4.592,3.872,6.896,10.944,6.896
		c4.224,0,6.944-0.832,8.144-2.48s1.808-5.36,1.808-11.12v-50.56H169.488z"/>
	<path style="fill:#FFFFFF;" d="M228.704,211h-32.72l-4.72,14.544h-15.216l25.216-75.808h21.6l25.616,75.808h-14.944L228.704,211z
		 M225.36,200.392l-13.104-39.504l-12.88,39.504H225.36z"/>
	<path style="fill:#FFFFFF;" d="M303.568,149.736h15.216l-24.432,75.808H272.24l-24.208-75.808h14.944L277.2,192.68
		c1.328,4.112,3.312,11.008,5.936,20.656h0.384l1.44-5.168c1.776-6.432,3.296-11.584,4.56-15.44L303.568,149.736z"/>
	<path style="fill:#FFFFFF;" d="M370.928,211h-32.72l-4.72,14.544h-15.216l25.216-75.808h21.6l25.616,75.808H375.76L370.928,211z
		 M367.6,200.392l-13.104-39.504l-12.88,39.504H367.6z"/>
</g>
<g>
</g>
<g>
</g>
<g>
</g>
<g>
</g>
<g>
</g>
<g>
</g>
<g>
</g>
<g>
</g>
<g>
</g>
<g>
</g>
<g>
</g>
<g>
</g>
<g>
</g>
<g>
</g>
<g>
</g>
</svg>
